{"asset":{"version":"2.0","generator":"Blockbench 4.12.5 glTF exporter"},"scenes":[{"nodes":[21],"name":"blockbench_export"}],"scene":0,"nodes":[{"translation":[-0.234375,1.28125,0.015625],"name":"Right Foot"},{"translation":[0.046875,-0.53125,-0.015625],"name":"Right Calf","children":[0]},{"translation":[0.1875,1.375,0.015625],"name":"Right Leg","children":[1]},{"translation":[-0.015625,-0.71875,0.078125],"name":"Left Foot"},{"translation":[0.078125,-0.46875,-0.015625],"name":"Left  Calf","children":[3]},{"translation":[-0.3125,1.375,0.015625],"name":"Left Leg","children":[4]},{"name":"Hips","children":[2,5]},{"translation":[-0.051486875,0.9740318750000001,-0.00006062499999999471],"name":"Neck"},{"rotation":[0,0,0.13052619222005157,0.9914448613738104],"translation":[0.109375,0.421875,0],"name":"Hair"},{"translation":[0.078125,0.125,0],"name":"Hat","children":[8]},{"translation":[-0.051486875,0.9740318750000001,-0.00006062499999999471],"name":"Head","children":[9]},{"translation":[0,0,-0.4375],"name":"Lower Right Arm"},{"rotation":[-0.49999999999999994,0,0,0.8660254037844387],"translation":[-0.051486875,0.7240318750000001,-0.250060625],"name":"Right Arm","children":[11]},{"translation":[0.0003906249999999986,0.005859375,-0.365715625],"name":"Lower Left Arm"},{"rotation":[-0.8660254037844386,0,0,0.5000000000000001],"translation":[-0.0518775,0.7130618750000002,0.25037125],"name":"Left Arm","children":[13]},{"rotation":[0,-0.7071067811865475,0,0.7071067811865476],"translation":[-0.000060625,1.525968125,0.067111875],"name":"Lower Torso","children":[7,10,12,14]},{"name":"bone2"},{"translation":[0,-0.1875,0],"name":"bone","children":[6,15,16]},{"rotation":[-0.7071067811865475,0,0,0.7071067811865476],"name":"torus","mesh":0},{"translation":[0,-0.25,0],"name":"cuboid","mesh":1},{"translation":[0,0.5,0],"name":"JukeBox","children":[18,19]},{"children":[17,20]}],"bufferViews":[{"buffer":0,"byteOffset":0,"byteLength":2688,"target":34962,"byteStride":12},{"buffer":0,"byteOffset":2688,"byteLength":2688,"target":34962,"byteStride":12},{"buffer":0,"byteOffset":5376,"byteLength":1792,"target":34962,"byteStride":8},{"buffer":0,"byteOffset":7168,"byteLength":672,"target":34963},{"buffer":0,"byteOffset":7840,"byteLength":288,"target":34962,"byteStride":12},{"buffer":0,"byteOffset":8128,"byteLength":288,"target":34962,"byteStride":12},{"buffer":0,"byteOffset":8416,"byteLength":192,"target":34962,"byteStride":8},{"buffer":0,"byteOffset":8608,"byteLength":72,"target":34963}],"buffers":[{"byteLength":8680,"uri":"data:application/octet-stream;base64,"}],"accessors":[{"bufferView":0,"componentType":5126,"count":224,"max":[0.46315261721611023,0.06936976313591003,0.4375],"min":[-0.46315261721611023,-0.06936976313591003,-0.47184884548187256],"type":"VEC3"},{"bufferView":1,"componentType":5126,"count":224,"max":[0.8683313131332397,0.9486787915229797,0.8891400098800659],"min":[-0.8683313131332397,-0.9486787915229797,-0.8891400098800659],"type":"VEC3"},{"bufferView":2,"componentType":5126,"count":224,"max":[0.7136250138282776,0.65625],"min":[0,0.011098623275756836],"type":"VEC2"},{"bufferView":3,"componentType":5123,"count":336,"max":[223],"min":[0],"type":"SCALAR"},{"bufferView":4,"componentType":5126,"count":24,"max":[0.5,0.375,0.25],"min":[-0.5,-0.25,-0.25],"type":"VEC3"},{"bufferView":5,"componentType":5126,"count":24,"max":[1,1,1],"min":[-1,-1,-1],"type":"VEC3"},{"bufferView":6,"componentType":5126,"count":24,"max":[0.765625,0.734375],"min":[0,0],"type":"VEC2"},{"bufferView":7,"componentType":5123,"count":36,"max":[23],"min":[0],"type":"SCALAR"}],"materials":[{"pbrMetallicRoughness":{"metallicFactor":0,"roughnessFactor":1,"baseColorTexture":{"index":0}},"alphaMode":"MASK","alphaCutoff":0.05,"doubleSided":true}],"textures":[{"sampler":0,"source":0,"name":"Jbox.png"}],"samplers":[{"magFilter":9728,"minFilter":9728,"wrapS":33071,"wrapT":33071}],"images":[{"mimeType":"image/png","uri":"data:image/png;base64,"}],"meshes":[{"primitives":[{"mode":4,"attributes":{"POSITION":0,"NORMAL":1,"TEXCOORD_0":2},"indices":3,"material":0}]},{"primitives":[{"mode":4,"attributes":{"POSITION":4,"NORMAL":5,"TEXCOORD_0":6},"indices":7,"material":0}]}]}