{"asset":{"version":"2.0","generator":"Blockbench 4.12.5 glTF exporter"},"scenes":[{"nodes":[12],"name":"blockbench_export"}],"scene":0,"nodes":[{"translation":[-0.1875,0.125,-0.0625],"name":"cube","mesh":0},{"name":"cylinder","mesh":1},{"rotation":[-0.7071067811865475,0,0,0.7071067811865476],"translation":[0,0.328125,0.015625],"name":"torus","mesh":2},{"name":"Lid","children":[2]},{"rotation":[0.4590041356516518,-0.05026912849012661,0.09656609736795028,0.8817387407926719],"translation":[0.0625,-0.1875,-0.1875],"name":"cuboid","mesh":3},{"translation":[-0.0625,0.328125,0],"name":"Brush","children":[4]},{"name":"54cc9cc6-eefe-c2b4-c01f-08a713cd5002"},{"translation":[0,-0.1875,0],"name":"cuboid","mesh":4},{"translation":[0.0625,0.015625,0],"name":"Left Leg","children":[6,7]},{"name":"cuboid","mesh":5},{"translation":[-0.0625,-0.171875,0],"name":"Right Leg","children":[9]},{"translation":[0,0.171875,0],"name":"Can","children":[1,3,5,8,10]},{"children":[0,11]}],"bufferViews":[{"buffer":0,"byteOffset":0,"byteLength":288,"target":34962,"byteStride":12},{"buffer":0,"byteOffset":288,"byteLength":288,"target":34962,"byteStride":12},{"buffer":0,"byteOffset":576,"byteLength":192,"target":34962,"byteStride":8},{"buffer":0,"byteOffset":768,"byteLength":72,"target":34963},{"buffer":0,"byteOffset":840,"byteLength":1440,"target":34962,"byteStride":12},{"buffer":0,"byteOffset":2280,"byteLength":1440,"target":34962,"byteStride":12},{"buffer":0,"byteOffset":3720,"byteLength":960,"target":34962,"byteStride":8},{"buffer":0,"byteOffset":4680,"byteLength":288,"target":34963},{"buffer":0,"byteOffset":4968,"byteLength":2880,"target":34962,"byteStride":12},{"buffer":0,"byteOffset":7848,"byteLength":2880,"target":34962,"byteStride":12},{"buffer":0,"byteOffset":10728,"byteLength":1920,"target":34962,"byteStride":8},{"buffer":0,"byteOffset":12648,"byteLength":720,"target":34963},{"buffer":0,"byteOffset":13368,"byteLength":288,"target":34962,"byteStride":12},{"buffer":0,"byteOffset":13656,"byteLength":288,"target":34962,"byteStride":12},{"buffer":0,"byteOffset":13944,"byteLength":192,"target":34962,"byteStride":8},{"buffer":0,"byteOffset":14136,"byteLength":72,"target":34963},{"buffer":0,"byteOffset":14208,"byteLength":288,"target":34962,"byteStride":12},{"buffer":0,"byteOffset":14496,"byteLength":288,"target":34962,"byteStride":12},{"buffer":0,"byteOffset":14784,"byteLength":192,"target":34962,"byteStride":8},{"buffer":0,"byteOffset":14976,"byteLength":72,"target":34963},{"buffer":0,"byteOffset":15048,"byteLength":288,"target":34962,"byteStride":12},{"buffer":0,"byteOffset":15336,"byteLength":288,"target":34962,"byteStride":12},{"buffer":0,"byteOffset":15624,"byteLength":192,"target":34962,"byteStride":8},{"buffer":0,"byteOffset":15816,"byteLength":72,"target":34963},{"buffer":0,"byteOffset":15888,"byteLength":4},{"buffer":0,"byteOffset":15892,"byteLength":16},{"buffer":0,"byteOffset":15908,"byteLength":4},{"buffer":0,"byteOffset":15912,"byteLength":16},{"buffer":0,"byteOffset":15928,"byteLength":4},{"buffer":0,"byteOffset":15932,"byteLength":12},{"buffer":0,"byteOffset":15944,"byteLength":4},{"buffer":0,"byteOffset":15948,"byteLength":16}],"buffers":[{"byteLength":15964,"uri":"data:application/octet-stream;base64,"}],"accessors":[{"bufferView":0,"componentType":5126,"count":24,"max":[0.0625,0.02187499962747097,-0.03125],"min":[0.03125,0,-0.0625],"type":"VEC3"},{"bufferView":1,"componentType":5126,"count":24,"max":[1,1,1],"min":[-1,-1,-1],"type":"VEC3"},{"bufferView":2,"componentType":5126,"count":24,"max":[0.625,0.5625],"min":[0,0],"type":"VEC2"},{"bufferView":3,"componentType":5123,"count":36,"max":[23],"min":[0],"type":"SCALAR"},{"bufferView":4,"componentType":5126,"count":120,"max":[0.140625,0.3125,0.140625],"min":[-0.140625,0,-0.140625],"type":"VEC3"},{"bufferView":5,"componentType":5126,"count":120,"max":[1,1,1],"min":[-1,-1,-1],"type":"VEC3"},{"bufferView":6,"componentType":5126,"count":120,"max":[0.45886561274528503,0.5],"min":[0,0],"type":"VEC2"},{"bufferView":7,"componentType":5123,"count":144,"max":[119],"min":[0],"type":"SCALAR"},{"bufferView":8,"componentType":5126,"count":240,"max":[0.11888206750154495,0.03565952181816101,0.08763206750154495],"min":[-0.11888206750154495,-0.010944503359496593,-0.08763206750154495],"type":"VEC3"},{"bufferView":9,"componentType":5126,"count":240,"max":[0.9570748805999756,0.7886885404586792,0.9759774804115295],"min":[-0.9570748805999756,-1,-0.9759774804115295],"type":"VEC3"},{"bufferView":10,"componentType":5126,"count":240,"max":[0.707309365272522,0.71875],"min":[0.003601941978558898,0],"type":"VEC2"},{"bufferView":11,"componentType":5123,"count":360,"max":[239],"min":[0],"type":"SCALAR"},{"bufferView":12,"componentType":5126,"count":24,"max":[0.015625,0.5,0.015625],"min":[-0.015625,0.1875,-0.015625],"type":"VEC3"},{"bufferView":13,"componentType":5126,"count":24,"max":[1,1,1],"min":[-1,-1,-1],"type":"VEC3"},{"bufferView":14,"componentType":5126,"count":24,"max":[0.625,0.65625],"min":[0,0.1875],"type":"VEC2"},{"bufferView":15,"componentType":5123,"count":36,"max":[23],"min":[0],"type":"SCALAR"},{"bufferView":16,"componentType":5126,"count":24,"max":[0.015625,0.25,0.015625],"min":[-0.015625,0,-0.015625],"type":"VEC3"},{"bufferView":17,"componentType":5126,"count":24,"max":[1,1,1],"min":[-1,-1,-1],"type":"VEC3"},{"bufferView":18,"componentType":5126,"count":24,"max":[0.625,0.65625],"min":[0.25,0.1875],"type":"VEC2"},{"bufferView":19,"componentType":5123,"count":36,"max":[23],"min":[0],"type":"SCALAR"},{"bufferView":20,"componentType":5126,"count":24,"max":[0.015625,0.25,0.015625],"min":[-0.015625,0,-0.015625],"type":"VEC3"},{"bufferView":21,"componentType":5126,"count":24,"max":[1,1,1],"min":[-1,-1,-1],"type":"VEC3"},{"bufferView":22,"componentType":5126,"count":24,"max":[0.625,0.65625],"min":[0.125,0.375],"type":"VEC2"},{"bufferView":23,"componentType":5123,"count":36,"max":[23],"min":[0],"type":"SCALAR"},{"bufferView":24,"componentType":5126,"count":1,"max":[0],"min":[0],"type":"SCALAR"},{"bufferView":25,"componentType":5126,"count":1,"max":[0.5310462713241577,-0.08173583447933197,0.1282995641231537,0.8335756659507751],"min":[0.5310462713241577,-0.08173583447933197,0.1282995641231537,0.8335756659507751],"type":"VEC4"},{"bufferView":26,"componentType":5126,"count":1,"max":[0],"min":[0],"type":"SCALAR"},{"bufferView":27,"componentType":5126,"count":1,"max":[-0.026415949687361717,0.14981229603290558,0.17162717878818512,0.9733460545539856],"min":[-0.026415949687361717,0.14981229603290558,0.17162717878818512,0.9733460545539856],"type":"VEC4"},{"bufferView":28,"componentType":5126,"count":1,"max":[0],"min":[0],"type":"SCALAR"},{"bufferView":29,"componentType":5126,"count":1,"max":[0,0.1875,0],"min":[0,0.1875,0],"type":"VEC3"},{"bufferView":30,"componentType":5126,"count":1,"max":[0],"min":[0],"type":"SCALAR"},{"bufferView":31,"componentType":5126,"count":1,"max":[0,-0.40274667739868164,0,0.9153114557266235],"min":[0,-0.40274667739868164,0,0.9153114557266235],"type":"VEC4"}],"materials":[{"pbrMetallicRoughness":{"metallicFactor":0,"roughnessFactor":1,"baseColorTexture":{"index":0}},"alphaMode":"MASK","alphaCutoff":0.05,"doubleSided":true},{"pbrMetallicRoughness":{"metallicFactor":0,"roughnessFactor":1,"baseColorTexture":{"index":1}},"alphaMode":"MASK","alphaCutoff":0.05,"doubleSided":true}],"textures":[{"sampler":0,"source":0,"name":"texture"},{"sampler":1,"source":1,"name":"paint"}],"samplers":[{"magFilter":9728,"minFilter":9728,"wrapS":33071,"wrapT":33071},{"magFilter":9728,"minFilter":9728,"wrapS":33071,"wrapT":33071}],"images":[{"mimeType":"image/png","uri":"data:image/png;base64,"},{"mimeType":"image/png","uri":"data:image/png;base64,"}],"meshes":[{"primitives":[{"mode":4,"attributes":{"POSITION":0,"NORMAL":1,"TEXCOORD_0":2},"indices":3,"material":0}]},{"primitives":[{"mode":4,"attributes":{"POSITION":4,"NORMAL":5,"TEXCOORD_0":6},"indices":7,"material":1}]},{"primitives":[{"mode":4,"attributes":{"POSITION":8,"NORMAL":9,"TEXCOORD_0":10},"indices":11,"material":1}]},{"primitives":[{"mode":4,"attributes":{"POSITION":12,"NORMAL":13,"TEXCOORD_0":14},"indices":15,"material":1}]},{"primitives":[{"mode":4,"attributes":{"POSITION":16,"NORMAL":17,"TEXCOORD_0":18},"indices":19,"material":1}]},{"primitives":[{"mode":4,"attributes":{"POSITION":20,"NORMAL":21,"TEXCOORD_0":22},"indices":23,"material":1}]}],"animations":[{"name":"animation","samplers":[{"input":24,"output":25,"interpolation":"LINEAR"},{"input":26,"output":27,"interpolation":"LINEAR"},{"input":28,"output":29,"interpolation":"LINEAR"},{"input":30,"output":31,"interpolation":"LINEAR"}],"channels":[{"sampler":0,"target":{"node":8,"path":"rotation"}},{"sampler":1,"target":{"node":11,"path":"rotation"}},{"sampler":2,"target":{"node":11,"path":"translation"}},{"sampler":3,"target":{"node":5,"path":"rotation"}}]}]}