{"asset":{"version":"2.0","generator":"Blockbench 4.12.5 glTF exporter"},"scenes":[{"nodes":[22],"name":"blockbench_export"}],"scene":0,"nodes":[{"translation":[0,0.203125,0],"name":"cylinder","mesh":0},{"name":"715a9f67-2279-e4e6-c19d-5c6d3bcfdfff"},{"name":"cf305db3-5ac7-831c-1312-eba1bcfe733d"},{"name":"20771429-401a-3bd2-161d-3224ffc11a4f"},{"translation":[0,-0.3125,0],"name":"cuboid","mesh":1},{"translation":[-0.09375,0.203125,0.125],"name":"Leg5","children":[1,2,3,4]},{"name":"d22f8fa9-4b24-662e-04ed-c98f2922cc2d"},{"translation":[0,-0.3125,0],"name":"cuboid","mesh":2},{"translation":[-0.09375,0.203125,0],"name":"Leg4","children":[6,7]},{"translation":[0,-0.3125,0],"name":"cuboid","mesh":3},{"translation":[-0.09375,0.203125,-0.109375],"name":"Leg3","children":[9]},{"translation":[0,-0.3125,0],"name":"cuboid","mesh":4},{"translation":[0.09375,0.203125,0],"name":"Leg2","children":[11]},{"name":"2edc0d35-51fa-c3b2-28df-4a0c210da43b"},{"translation":[0,-0.3125,0],"name":"cuboid","mesh":5},{"translation":[0.09375,0.203125,-0.109375],"name":"Leg","children":[13,14]},{"translation":[0,-0.3125,0],"name":"cuboid","mesh":6},{"translation":[0.09375,0.203125,0.125],"name":"Leg6","children":[16]},{"name":"cuboid","mesh":7},{"translation":[0,0.265625,-0.015625],"name":"SprayNozzle","children":[18]},{"name":"beveled_cuboid","mesh":8},{"translation":[0,-0.078125,0],"name":"Body","children":[20]},{"children":[0,5,8,10,12,15,17,19,21]}],"bufferViews":[{"buffer":0,"byteOffset":0,"byteLength":600,"target":34962,"byteStride":12},{"buffer":0,"byteOffset":600,"byteLength":600,"target":34962,"byteStride":12},{"buffer":0,"byteOffset":1200,"byteLength":400,"target":34962,"byteStride":8},{"buffer":0,"byteOffset":1600,"byteLength":120,"target":34963},{"buffer":0,"byteOffset":1720,"byteLength":288,"target":34962,"byteStride":12},{"buffer":0,"byteOffset":2008,"byteLength":288,"target":34962,"byteStride":12},{"buffer":0,"byteOffset":2296,"byteLength":192,"target":34962,"byteStride":8},{"buffer":0,"byteOffset":2488,"byteLength":72,"target":34963},{"buffer":0,"byteOffset":2560,"byteLength":288,"target":34962,"byteStride":12},{"buffer":0,"byteOffset":2848,"byteLength":288,"target":34962,"byteStride":12},{"buffer":0,"byteOffset":3136,"byteLength":192,"target":34962,"byteStride":8},{"buffer":0,"byteOffset":3328,"byteLength":72,"target":34963},{"buffer":0,"byteOffset":3400,"byteLength":288,"target":34962,"byteStride":12},{"buffer":0,"byteOffset":3688,"byteLength":288,"target":34962,"byteStride":12},{"buffer":0,"byteOffset":3976,"byteLength":192,"target":34962,"byteStride":8},{"buffer":0,"byteOffset":4168,"byteLength":72,"target":34963},{"buffer":0,"byteOffset":4240,"byteLength":288,"target":34962,"byteStride":12},{"buffer":0,"byteOffset":4528,"byteLength":288,"target":34962,"byteStride":12},{"buffer":0,"byteOffset":4816,"byteLength":192,"target":34962,"byteStride":8},{"buffer":0,"byteOffset":5008,"byteLength":72,"target":34963},{"buffer":0,"byteOffset":5080,"byteLength":288,"target":34962,"byteStride":12},{"buffer":0,"byteOffset":5368,"byteLength":288,"target":34962,"byteStride":12},{"buffer":0,"byteOffset":5656,"byteLength":192,"target":34962,"byteStride":8},{"buffer":0,"byteOffset":5848,"byteLength":72,"target":34963},{"buffer":0,"byteOffset":5920,"byteLength":288,"target":34962,"byteStride":12},{"buffer":0,"byteOffset":6208,"byteLength":288,"target":34962,"byteStride":12},{"buffer":0,"byteOffset":6496,"byteLength":192,"target":34962,"byteStride":8},{"buffer":0,"byteOffset":6688,"byteLength":72,"target":34963},{"buffer":0,"byteOffset":6760,"byteLength":1344,"target":34962,"byteStride":12},{"buffer":0,"byteOffset":8104,"byteLength":1344,"target":34962,"byteStride":12},{"buffer":0,"byteOffset":9448,"byteLength":896,"target":34962,"byteStride":8},{"buffer":0,"byteOffset":10344,"byteLength":336,"target":34963},{"buffer":0,"byteOffset":10680,"byteLength":1152,"target":34962,"byteStride":12},{"buffer":0,"byteOffset":11832,"byteLength":1152,"target":34962,"byteStride":12},{"buffer":0,"byteOffset":12984,"byteLength":768,"target":34962,"byteStride":8},{"buffer":0,"byteOffset":13752,"byteLength":264,"target":34963}],"buffers":[{"byteLength":14016,"uri":"data:application/octet-stream;base64,"}],"accessors":[{"bufferView":0,"componentType":5126,"count":50,"max":[0.024307891726493835,0.234375,1.3877787807814457e-17],"min":[-0.024307891726493835,0.078125,-0.03688562288880348],"type":"VEC3"},{"bufferView":1,"componentType":5126,"count":50,"max":[0.9261307120323181,1,1],"min":[-0.9261307120323181,-1,-0.8651782870292664],"type":"VEC3"},{"bufferView":2,"componentType":5126,"count":50,"max":[0.5625,0.599387526512146],"min":[0.006943750195205212,0],"type":"VEC2"},{"bufferView":3,"componentType":5123,"count":60,"max":[49],"min":[0],"type":"SCALAR"},{"bufferView":4,"componentType":5126,"count":24,"max":[0.03125,0.265625,0.015625],"min":[-0.03125,0.109375,-0.015625],"type":"VEC3"},{"bufferView":5,"componentType":5126,"count":24,"max":[1,1,1],"min":[-1,-1,-1],"type":"VEC3"},{"bufferView":6,"componentType":5126,"count":24,"max":[0.734375,0.046875],"min":[0.390625,0.015625],"type":"VEC2"},{"bufferView":7,"componentType":5123,"count":36,"max":[23],"min":[0],"type":"SCALAR"},{"bufferView":8,"componentType":5126,"count":24,"max":[0.03125,0.265625,0.015625],"min":[-0.03125,0.109375,-0.015625],"type":"VEC3"},{"bufferView":9,"componentType":5126,"count":24,"max":[1,1,1],"min":[-1,-1,-1],"type":"VEC3"},{"bufferView":10,"componentType":5126,"count":24,"max":[0.984375,0.109375],"min":[0.015625,0.015625],"type":"VEC2"},{"bufferView":11,"componentType":5123,"count":36,"max":[23],"min":[0],"type":"SCALAR"},{"bufferView":12,"componentType":5126,"count":24,"max":[0.03125,0.265625,0.015625],"min":[-0.03125,0.109375,-0.015625],"type":"VEC3"},{"bufferView":13,"componentType":5126,"count":24,"max":[1,1,1],"min":[-1,-1,-1],"type":"VEC3"},{"bufferView":14,"componentType":5126,"count":24,"max":[0.484375,0.109375],"min":[0.140625,0.078125],"type":"VEC2"},{"bufferView":15,"componentType":5123,"count":36,"max":[23],"min":[0],"type":"SCALAR"},{"bufferView":16,"componentType":5126,"count":24,"max":[0.03125,0.265625,0.015625],"min":[-0.03125,0.109375,-0.015625],"type":"VEC3"},{"bufferView":17,"componentType":5126,"count":24,"max":[1,1,1],"min":[-1,-1,-1],"type":"VEC3"},{"bufferView":18,"componentType":5126,"count":24,"max":[0.859375,0.109375],"min":[0.515625,0.078125],"type":"VEC2"},{"bufferView":19,"componentType":5123,"count":36,"max":[23],"min":[0],"type":"SCALAR"},{"bufferView":20,"componentType":5126,"count":24,"max":[0.03125,0.265625,0.015625],"min":[-0.03125,0.109375,-0.015625],"type":"VEC3"},{"bufferView":21,"componentType":5126,"count":24,"max":[1,1,1],"min":[-1,-1,-1],"type":"VEC3"},{"bufferView":22,"componentType":5126,"count":24,"max":[0.984375,0.171875],"min":[0.015625,0.078125],"type":"VEC2"},{"bufferView":23,"componentType":5123,"count":36,"max":[23],"min":[0],"type":"SCALAR"},{"bufferView":24,"componentType":5126,"count":24,"max":[0.03125,0.265625,0.015625],"min":[-0.03125,0.109375,-0.015625],"type":"VEC3"},{"bufferView":25,"componentType":5126,"count":24,"max":[1,1,1],"min":[-1,-1,-1],"type":"VEC3"},{"bufferView":26,"componentType":5126,"count":24,"max":[0.359375,0.046875],"min":[0.015625,0.015625],"type":"VEC2"},{"bufferView":27,"componentType":5123,"count":36,"max":[23],"min":[0],"type":"SCALAR"},{"bufferView":28,"componentType":5126,"count":112,"max":[0.0625,0.234375,0.0625],"min":[-0.0625,0.140625,-0.0625],"type":"VEC3"},{"bufferView":29,"componentType":5126,"count":112,"max":[0.9662349224090576,1,0.9486833214759827],"min":[-0.9662349224090576,-1,-0.9662349224090576],"type":"VEC3"},{"bufferView":30,"componentType":5126,"count":112,"max":[0.903124988079071,0.9440500140190125],"min":[0,0],"type":"VEC2"},{"bufferView":31,"componentType":5123,"count":168,"max":[111],"min":[0],"type":"SCALAR"},{"bufferView":32,"componentType":5126,"count":96,"max":[0.1875,0.375,0.21875],"min":[-0.1875,0.125,-0.21875],"type":"VEC3"},{"bufferView":33,"componentType":5126,"count":96,"max":[1,1,1],"min":[-1,-1,-1],"type":"VEC3"},{"bufferView":34,"componentType":5126,"count":96,"max":[0.607371985912323,0.53125],"min":[0,0],"type":"VEC2"},{"bufferView":35,"componentType":5123,"count":132,"max":[95],"min":[0],"type":"SCALAR"}],"materials":[{"pbrMetallicRoughness":{"metallicFactor":0,"roughnessFactor":1,"baseColorTexture":{"index":0}},"alphaMode":"MASK","alphaCutoff":0.05,"doubleSided":true},{"pbrMetallicRoughness":{"metallicFactor":0,"roughnessFactor":1,"baseColorTexture":{"index":1}},"alphaMode":"MASK","alphaCutoff":0.05,"doubleSided":true},{"pbrMetallicRoughness":{"metallicFactor":0,"roughnessFactor":1,"baseColorTexture":{"index":2}},"alphaMode":"MASK","alphaCutoff":0.05,"doubleSided":true},{"pbrMetallicRoughness":{"metallicFactor":0,"roughnessFactor":1,"baseColorTexture":{"index":3}},"alphaMode":"MASK","alphaCutoff":0.05,"doubleSided":true}],"textures":[{"sampler":0,"source":0,"name":"texture"},{"sampler":1,"source":1,"name":"LegsSpr"},{"sampler":2,"source":2,"name":"texture"},{"sampler":3,"source":3,"name":"SpritterBug"}],"samplers":[{"magFilter":9728,"minFilter":9728,"wrapS":33071,"wrapT":33071},{"magFilter":9728,"minFilter":9728,"wrapS":33071,"wrapT":33071},{"magFilter":9728,"minFilter":9728,"wrapS":33071,"wrapT":33071},{"magFilter":9728,"minFilter":9728,"wrapS":33071,"wrapT":33071}],"images":[{"mimeType":"image/png","uri":"data:image/png;base64,"},{"mimeType":"image/png","uri":"data:image/png;base64,"},{"mimeType":"image/png","uri":"data:image/png;base64,"},{"mimeType":"image/png","uri":"data:image/png;base64,"}],"meshes":[{"primitives":[{"mode":4,"attributes":{"POSITION":0,"NORMAL":1,"TEXCOORD_0":2},"indices":3,"material":0}]},{"primitives":[{"mode":4,"attributes":{"POSITION":4,"NORMAL":5,"TEXCOORD_0":6},"indices":7,"material":1}]},{"primitives":[{"mode":4,"attributes":{"POSITION":8,"NORMAL":9,"TEXCOORD_0":10},"indices":11,"material":1}]},{"primitives":[{"mode":4,"attributes":{"POSITION":12,"NORMAL":13,"TEXCOORD_0":14},"indices":15,"material":1}]},{"primitives":[{"mode":4,"attributes":{"POSITION":16,"NORMAL":17,"TEXCOORD_0":18},"indices":19,"material":1}]},{"primitives":[{"mode":4,"attributes":{"POSITION":20,"NORMAL":21,"TEXCOORD_0":22},"indices":23,"material":1}]},{"primitives":[{"mode":4,"attributes":{"POSITION":24,"NORMAL":25,"TEXCOORD_0":26},"indices":27,"material":1}]},{"primitives":[{"mode":4,"attributes":{"POSITION":28,"NORMAL":29,"TEXCOORD_0":30},"indices":31,"material":2}]},{"primitives":[{"mode":4,"attributes":{"POSITION":32,"NORMAL":33,"TEXCOORD_0":34},"indices":35,"material":3}]}]}